<?xml version="1.0" standalone="no"?>
<!DOCTYPE svg PUBLIC "-//W3C//DTD SVG 20010904//EN"
 "http://www.w3.org/TR/2001/REC-SVG-20010904/DTD/svg10.dtd">
<svg version="1.0" xmlns="http://www.w3.org/2000/svg"
 width="400.000000pt" height="400.000000pt" viewBox="0 0 400.000000 400.000000"
 preserveAspectRatio="xMidYMid meet">
<metadata>
Created by potrace 1.14, written by Peter Selinger 2001-2017
</metadata>
<g transform="translate(0.000000,400.000000) scale(0.100000,-0.100000)"
fill="#000000" stroke="none">
<path d="M0 2000 l0 -2000 2000 0 2000 0 0 2000 0 2000 -2000 0 -2000 0 0
-2000z m1360 1252 c0 -109 3 -381 7 -605 l6 -406 376 602 377 602 198 3 c157
2 197 0 193 -10 -2 -7 -217 -341 -476 -741 l-471 -729 475 -768 c261 -422 475
-770 475 -774 0 -3 -89 -5 -197 -4 l-198 3 -375 610 -375 610 -3 -613 -2 -612
-165 0 -165 0 0 1515 0 1515 160 0 160 0 0 -198z m1640 193 c0 -2 -123 -195
-273 -427 -151 -233 -365 -564 -476 -736 l-202 -314 19 -31 c10 -18 224 -364
475 -770 252 -406 457 -740 457 -743 0 -2 -46 -3 -102 -2 l-103 3 -149 240
c-191 308 -538 870 -678 1097 l-110 178 45 72 c99 163 880 1414 889 1426 7 8
42 12 109 12 55 0 99 -2 99 -5z"/>
</g>
</svg>
